<svg xmlns="http://www.w3.org/2000/svg" width="240" height="241" viewBox="0 0 240 241">
    <g fill="none" fill-rule="evenodd">
        <path fill="#FFB432" fill-rule="nonzero" d="M166.531 189.018l1.121 3.799c.073.244.26.437.502.516l3.765 1.23c.28.092.484.334.525.625.042.292-.085.582-.328.749l-3.265 2.24c-.21.144-.336.382-.337.636l-.006 3.96c0 .295-.168.563-.432.693s-.58.099-.813-.08l-3.14-2.414c-.202-.156-.467-.201-.71-.123l-3.768 1.218c-.28.09-.588.014-.793-.197-.205-.211-.273-.52-.174-.798l1.325-3.732c.086-.24.047-.506-.102-.713l-2.323-3.207c-.173-.239-.195-.554-.058-.815.138-.26.411-.42.705-.412l3.96.107c.254.007.495-.112.645-.318l2.333-3.2c.173-.238.467-.358.758-.307.29.05.527.26.61.543z"/>
        <path fill="#FFA032" fill-rule="nonzero" d="M168.85 198.176l3.266-2.24c.243-.166.37-.456.329-.748-.042-.291-.246-.534-.526-.625l-3.765-1.23c-.242-.08-.43-.272-.501-.517l-1.122-3.798c-.083-.282-.32-.493-.61-.543-.29-.05-.584.069-.757.307l-.184.252c-.159.222-.19.51-.082.76 1.074 2.761 1.175 5.805.287 8.631-.218.67-.482 1.324-.791 1.956-.167.332-.077.736.216.965l2.653 2.04c.234.18.549.21.813.08.264-.13.432-.398.433-.692l.006-3.96c0-.255.125-.494.336-.638z"/>
        <path fill="#FFB432" fill-rule="nonzero" d="M55.907 8.901l3.792 5.283c.244.34.64.537 1.057.529l6.501-.13c.484-.01.93.257 1.153.686.223.43.182.948-.104 1.337l-3.852 5.239c-.248.336-.314.774-.177 1.169l2.132 6.143c.158.456.044.964-.296 1.308-.34.344-.845.466-1.304.314l-6.172-2.045c-.397-.131-.833-.06-1.166.193l-5.184 3.926c-.385.292-.903.34-1.336.123-.432-.216-.704-.66-.701-1.143l.037-6.502c.003-.418-.201-.81-.544-1.05l-5.335-3.717c-.397-.276-.603-.753-.53-1.232.072-.478.409-.873.87-1.02l6.195-1.974c.398-.127.709-.442.83-.842l1.887-6.222c.14-.463.53-.806 1.008-.885.477-.08.957.12 1.24.512z"/>
        <path fill="#FFA032" fill-rule="nonzero" d="M64.454 21.845l3.852-5.239c.286-.39.327-.908.104-1.337-.222-.43-.67-.695-1.153-.685l-6.5.129c-.419.008-.814-.19-1.058-.53l-3.792-5.282c-.282-.393-.762-.591-1.24-.512-.476.079-.867.422-1.007.885l-.15.49c-.125.43-.017.893.285 1.222 3.157 3.7 4.96 8.365 5.111 13.226.024 1.156-.033 2.312-.17 3.46-.079.606.28 1.182.857 1.379l5.216 1.728c.46.152.965.03 1.305-.314.34-.344.454-.852.295-1.308l-2.132-6.143c-.137-.395-.07-.832.177-1.17z"/>
        <path fill="#FFB432" fill-rule="nonzero" d="M204.26 116.923l4.09 6.244c.262.401.706.648 1.186.659l7.462.17c.555.013 1.054.34 1.288.843.235.503.163 1.096-.185 1.529l-4.674 5.819c-.301.374-.398.872-.26 1.332l2.143 7.15c.16.531.003 1.107-.403 1.485-.406.379-.992.493-1.511.297l-6.979-2.648c-.449-.17-.952-.109-1.347.164l-6.137 4.248c-.457.316-1.053.345-1.538.076-.486-.27-.776-.791-.749-1.346l.362-7.455c.023-.48-.191-.94-.573-1.23l-5.936-4.524c-.442-.337-.654-.895-.547-1.44.106-.544.512-.982 1.048-1.127l7.202-1.96c.463-.126.834-.472.993-.925l2.469-7.044c.183-.524.648-.898 1.199-.965.55-.067 1.092.184 1.396.648z"/>
        <path fill="#FFA032" fill-rule="nonzero" d="M213.426 132.187l4.675-5.82c.347-.432.42-1.025.185-1.528-.234-.503-.734-.83-1.289-.842l-7.462-.171c-.48-.011-.923-.258-1.186-.66l-4.09-6.243c-.304-.464-.846-.716-1.396-.649-.551.068-1.016.442-1.2.966l-.195.556c-.165.485-.064 1.022.266 1.414 3.439 4.399 5.278 9.837 5.214 15.42-.03 1.327-.152 2.65-.365 3.96-.121.69.262 1.369.915 1.623l5.897 2.237c.52.197 1.105.082 1.511-.296.406-.378.563-.954.403-1.486l-2.143-7.15c-.138-.46-.04-.957.26-1.331z"/>
        <path fill="#FFB432" fill-rule="nonzero" d="M52.29 158.414l1.254 6.468c.08.416.36.766.75.935l6.038 2.634c.45.196.748.63.771 1.12.023.489-.234.949-.662 1.186l-5.764 3.19c-.37.206-.617.58-.658 1.002l-.64 6.557c-.047.488-.367.906-.825 1.08-.459.173-.975.07-1.334-.264l-4.815-4.496c-.31-.289-.742-.407-1.156-.316l-6.434 1.419c-.478.105-.975-.07-1.281-.452-.306-.383-.37-.906-.162-1.35l2.788-5.97c.179-.383.158-.83-.057-1.196l-3.337-5.68c-.248-.423-.235-.95.034-1.359.27-.41.747-.63 1.233-.57l6.54.806c.42.052.839-.107 1.12-.424l4.371-4.929c.325-.366.83-.517 1.303-.387.472.129.83.515.924.996z"/>
        <path fill="#FFA032" fill-rule="nonzero" d="M54.677 173.948l5.764-3.191c.428-.237.685-.697.662-1.187-.023-.489-.322-.923-.771-1.119l-6.039-2.634c-.388-.17-.668-.519-.749-.935l-.293-1.516c-.357 5.137-2.302 10.035-5.567 14.016-.422.526-.369 1.288.12 1.751l3.417 3.19c.358.334.875.436 1.333.262.458-.173.778-.591.826-1.079l.64-6.557c.04-.422.286-.796.657-1.001z"/>
        <path fill="#FFB432" fill-rule="nonzero" d="M36.006 104.507l.986 3.472c.063.223.232.4.452.475l3.418 1.155c.255.086.438.31.473.575.036.266-.083.53-.306.679l-2.996 2.01c-.193.129-.31.345-.312.577l-.043 3.608c-.003.268-.158.511-.4.627-.242.116-.53.084-.74-.081l-2.838-2.228c-.182-.144-.424-.188-.645-.119l-3.445 1.074c-.256.08-.535.008-.72-.187-.185-.194-.244-.476-.152-.728l1.243-3.388c.08-.218.047-.46-.087-.65l-2.086-2.944c-.155-.22-.173-.507-.045-.743s.378-.38.646-.37l3.606.136c.232.008.454-.098.592-.284l2.156-2.894c.16-.215.428-.32.692-.272.264.049.477.243.55.5z"/>
        <path fill="#FFA032" fill-rule="nonzero" d="M38.033 112.873l2.996-2.01c.223-.15.342-.413.306-.679-.035-.266-.218-.488-.473-.574l-3.418-1.156c-.22-.074-.389-.252-.452-.475l-.986-3.471c-.074-.258-.287-.452-.551-.5-.264-.05-.532.056-.693.271-.15.206-.179.477-.073.71.513 1.165.898 2.383 1.148 3.632.01.05.016.1.016.15.029 2.305-.356 4.596-1.136 6.764-.113.29-.024.618.219.812l1.602 1.258c.21.165.497.197.74.08.241-.115.396-.358.4-.626l.043-3.608c.002-.233.119-.449.312-.578z"/>
        <path fill="#FFB432" fill-rule="nonzero" d="M147.652.635l1.22 4.298c.08.276.289.496.56.588l4.234 1.431c.314.107.541.383.585.712.044.33-.103.655-.379.84l-3.71 2.49c-.239.16-.383.427-.387.714l-.053 4.468c-.004.333-.196.634-.496.777-.3.144-.654.105-.916-.1l-3.514-2.76c-.226-.178-.525-.233-.799-.147l-4.266 1.33c-.317.099-.663.009-.892-.232-.229-.24-.301-.59-.187-.902l1.539-4.195c.099-.27.059-.571-.108-.806L137.5 5.496c-.192-.27-.214-.627-.056-.92.159-.292.469-.47.8-.457l4.466.167c.287.011.561-.12.733-.35l2.669-3.584c.198-.267.53-.397.858-.337.327.06.591.3.682.62z"/>
        <path fill="#FFA032" fill-rule="nonzero" d="M150.162 10.994l3.71-2.49c.276-.185.423-.51.38-.84-.044-.33-.272-.605-.586-.712l-4.233-1.43c-.272-.093-.482-.313-.56-.589L147.652.635c-.091-.32-.355-.56-.682-.62-.327-.06-.66.07-.858.337-.187.254-.222.59-.091.878.635 1.444 1.111 2.952 1.421 4.498.013.061.02.124.02.186.036 2.853-.44 5.69-1.406 8.376-.14.358-.03.765.27 1.005l1.984 1.557c.262.206.617.245.916.101.3-.143.492-.444.496-.777l.053-4.468c.004-.287.148-.554.387-.714z"/>
        <ellipse cx="120" cy="229.766" fill="#E6E6E6" fill-rule="nonzero" rx="118.652" ry="10.234"/>
        <path fill="#FFBD5E" fill-rule="nonzero" d="M196.82 47.08l.867 4.07c.129.608.635 1.064 1.254 1.129l4.139.434c.618.065 1.125.52 1.254 1.13.13.607-.148 1.23-.686 1.54l-3.604 2.082c-.538.311-.815.934-.686 1.542l.866 4.07c.13.608-.147 1.23-.686 1.542-.538.31-1.216.24-1.678-.177l-3.093-2.784c-.463-.416-1.14-.487-1.679-.176l-3.603 2.082c-.539.31-1.216.24-1.679-.176-.462-.416-.603-1.083-.35-1.65l1.691-3.803c.253-.568.111-1.234-.35-1.65l-3.094-2.784c-.462-.417-.604-1.083-.35-1.65.252-.569.842-.91 1.46-.845l4.139.434c.618.065 1.208-.276 1.461-.844l1.692-3.802c.253-.568.843-.909 1.462-.844.618.066 1.125.522 1.254 1.13z"/>
        <path fill="#FFA55E" fill-rule="nonzero" d="M203.648 55.384c.538-.311.815-.934.686-1.542-.13-.608-.636-1.064-1.254-1.129l-4.14-.434c-.618-.065-1.124-.52-1.253-1.13l-.866-4.07c-.15-.724-.832-1.21-1.566-1.116.52 5.293.149 10.844-1.87 15.407.48-.155 1.005-.045 1.382.29l3.093 2.784c.462.416 1.14.487 1.678.176s.815-.934.686-1.542l-.866-4.07c-.13-.608.148-1.23.686-1.541l3.604-2.083z"/>
        <path fill="#998675" fill-rule="nonzero" d="M126.831 148.793L112.858 148.793 104.527 146.66 106.62 209.411 106.615 209.424 106.633 209.797 106.636 209.877 106.637 209.875 107.075 218.865 112.209 218.865 117.962 157.882 123.977 218.865 129.101 218.865 129.251 214.078 131.006 146.66z"/>
        <path fill="#736357" fill-rule="nonzero" d="M106.833 222.033h5.447c.217.003.395-.17.398-.387v-2.394c-.003-.217-.181-.39-.398-.387h-5.446c-.217-.003-.395.17-.398.387v2.393c.003.217.18.39.397.388zM123.802 222.033h5.447c.216.003.395-.17.398-.387v-2.394c-.003-.217-.182-.39-.398-.387h-5.447c-.217-.003-.395.17-.398.387v2.393c.003.217.181.39.398.388z"/>
        <path fill="#897566" fill-rule="nonzero" d="M112.858 148.793c-2.365 11.386-.356 31.962-1.918 43.726-.567 5.824-2.026 11.525-4.325 16.905l.46 9.441h5.134l6.611-70.072h-5.962z"/>
        <path fill="#897566" fill-rule="nonzero" d="M125.686 203.663c2.041-9.95 3.061-21.093-.34-30.645-1.825-4.984-.113-19.46 1.485-24.225h-9.765l6.911 70.072h5.125l.15-4.787c-2.724-2.155-4.312-6.922-3.566-10.415z"/>
        <path fill="#FFF" fill-rule="nonzero" d="M131.842 230.494c-.02-.935-.285-.633-.285-.633s-.051.356-1.277.56c-.542.152-1.123.076-1.607-.213l-.047-.07h-4.202l-.034.06c-.484.3-1.073.381-1.62.223-1.226-.204-1.283-.63-1.283-.63s-.26-.232-.28.703l-.019.936c.253.223.611.28.92.147.567-.109 1.125-.256 1.67-.442 1.848-.34 3.742-.327 5.584.038.518.163 1.045.298 1.577.404.31.133.668.076.921-.147l-.018-.936z"/>
        <path fill="#8CC63F" fill-rule="nonzero" d="M130.564 227.591c-.986.346-1.953.743-2.897 1.19h-2.283c-.945-.447-1.912-.844-2.898-1.19-.761.533-1.132 1.468-.943 2.379.5 1.206 3.35.467 3.35.467h3.264s2.85.739 3.35-.468c.19-.91-.181-1.845-.943-2.378z"/>
        <path fill="#13769D" fill-rule="nonzero" d="M129.727 224.473c.352.19.588.543.628.942.02.23.02.46 0 .69-.315.252-.763.243-1.067-.02-.607-.44-.273-1.926.439-1.612z"/>
        <path fill="#CCC" fill-rule="nonzero" d="M128.785 222.57c-.118 1.028-.182 2.061-.19 3.096-.69.052-1.381.052-2.07 0-.689.052-1.38.052-2.069 0-.009-1.035-.073-2.069-.191-3.097l-.186-.9c.066-.636.441-1.2 1.003-1.506.962-.545 1.213-.443 1.213-.443h.46s.252-.102 1.214.443c.562.307.936.87 1.003 1.506l-.187.9z"/>
        <path fill="#13769D" fill-rule="nonzero" d="M123.323 224.473c-.352.19-.587.543-.627.942-.02.23-.02.46 0 .69.314.252.763.243 1.067-.02.607-.44.272-1.926-.44-1.612z"/>
        <path fill="#8CC63F" fill-rule="nonzero" d="M129.915 224.704c-.648 0-.607 1.402-.607 1.402h-5.566s.042-1.402-.607-1.402c-.173-.432-.165-.915.021-1.34.335-.544.795-1.256.795-1.256s.544-.606.67 0c.126.607-.418 3.244.837 3.202h2.134c1.257.042.712-2.595.838-3.202.126-.606.669 0 .669 0s.46.712.796 1.256c.186.426.193.908.02 1.34z"/>
        <path fill="#8CC63F" fill-rule="nonzero" d="M130.578 227.076c-.035.892-.391 2.21-2.84 1.96-.463-.052-.893-.268-1.213-.608-.32.34-.75.555-1.213.608-2.45.25-2.804-1.069-2.84-1.96-.035-.89.35-1.138.35-1.138l3.703.168 3.703-.168s.385.246.35 1.138z"/>
        <path fill="#13769D" fill-rule="nonzero" d="M129.788 227.646c0 .376 0 .471-.399.471-.611.068-1.23.036-1.831-.096-.34-.073-.686-.11-1.033-.11-.347 0-.693.037-1.032.11-.602.132-1.22.164-1.833.096-.397 0-.397-.111-.397-.471 0-.95 1.068-1.136 1.798-1.136.314-.016.626.067.89.238.151.112.334.174.523.177h.09c.194-.004.382-.07.537-.188.268-.161.576-.24.888-.227.73 0 1.799.185 1.799 1.136z"/>
        <path fill="#022835" fill-rule="nonzero" d="M130.439 232.07h-7.827c-1.528 0-1.423-.67-1.423-.67.721-.003 2.888-.46 3.536-1.674.175-.499.53-.913.997-1.16.496-.215 1.057-.223 1.559-.021.479.254.85.674 1.044 1.18.649 1.214 2.815 1.672 3.537 1.675 0 0 .104.67-1.423.67z"/>
        <path fill="#FFF" fill-rule="nonzero" d="M128.553 222.812h-3.99c-.053-.005-.093-.048-.093-.1 0-.052.04-.095.092-.1h3.99c.053.005.093.048.093.1 0 .052-.04.095-.092.1zM128.553 223.73h-3.99c-.052-.004-.092-.047-.092-.099 0-.052.04-.095.091-.1h3.99c.052.005.092.048.092.1 0 .052-.04.095-.091.1zM128.553 224.76h-3.99c-.039.003-.075-.015-.095-.047-.02-.032-.02-.073 0-.105s.056-.05.094-.047h3.99c.039-.004.075.015.095.047.02.032.02.073 0 .105s-.056.05-.094.047zM128.553 225.688h-3.99c-.052-.005-.092-.048-.092-.1 0-.052.04-.095.091-.1h3.99c.039-.003.075.015.095.047.02.033.02.073 0 .106-.02.032-.056.05-.094.047z"/>
        <path fill="#13769D" fill-rule="nonzero" d="M126.14 226.014l-.07-.835c-.002-.029.007-.056.026-.077.02-.02.046-.032.074-.032h.71c.028 0 .055.011.074.032.02.021.029.05.026.077l-.08.836c-.005.051-.048.09-.1.09h-.56c-.052 0-.096-.04-.1-.091zM126.14 220.656l-.07-.835c-.003-.028.007-.056.026-.076.019-.021.046-.033.074-.033h.71c.028 0 .055.012.074.033.02.021.029.05.026.077l-.08.835c-.005.052-.048.091-.1.091h-.56c-.052 0-.096-.04-.1-.092z"/>
        <path fill="#FFF" fill-rule="nonzero" d="M114.873 230.494c-.02-.935-.285-.633-.285-.633s-.051.356-1.277.56c-.542.152-1.123.076-1.607-.213l-.046-.07h-4.203l-.034.06c-.484.3-1.072.381-1.62.223-1.225-.204-1.282-.63-1.282-.63s-.26-.232-.28.703l-.02.936c.253.223.612.28.922.147.566-.109 1.124-.256 1.67-.442 1.846-.34 3.74-.327 5.583.038.518.163 1.045.298 1.577.404.31.133.668.076.92-.147l-.018-.936z"/>
        <path fill="#8CC63F" fill-rule="nonzero" d="M113.595 227.591c-.985.346-1.953.743-2.897 1.19h-2.283c-.945-.447-1.912-.844-2.897-1.19-.762.533-1.133 1.468-.944 2.379.5 1.206 3.35.467 3.35.467h3.265s2.85.739 3.35-.468c.189-.91-.182-1.845-.944-2.378z"/>
        <path fill="#13769D" fill-rule="nonzero" d="M112.758 224.473c.353.19.588.543.628.942.02.23.02.46 0 .69-.314.252-.763.243-1.067-.02-.607-.44-.272-1.926.44-1.612z"/>
        <path fill="#CCC" fill-rule="nonzero" d="M111.816 222.57c-.118 1.028-.181 2.061-.19 3.096-.689.052-1.38.052-2.07 0-.689.052-1.38.052-2.069 0-.009-1.035-.073-2.069-.191-3.097l-.186-.9c.067-.636.441-1.2 1.003-1.506.962-.545 1.213-.443 1.213-.443h.46s.252-.102 1.214.443c.562.307.937.87 1.003 1.506l-.187.9z"/>
        <path fill="#13769D" fill-rule="nonzero" d="M106.355 224.473c-.353.19-.588.543-.628.942-.02.23-.02.46 0 .69.314.252.763.243 1.067-.02.607-.44.272-1.926-.44-1.612z"/>
        <path fill="#8CC63F" fill-rule="nonzero" d="M112.947 224.704c-.65 0-.608 1.402-.608 1.402h-5.566s.042-1.402-.606-1.402c-.173-.432-.166-.915.02-1.34.335-.544.795-1.256.795-1.256s.544-.606.67 0c.126.607-.418 3.244.837 3.202h2.134c1.257.042.712-2.595.838-3.202.126-.606.67 0 .67 0s.46.712.795 1.256c.186.425.194.908.02 1.34z"/>
        <path fill="#8CC63F" fill-rule="nonzero" d="M113.61 227.076c-.035.892-.391 2.21-2.84 1.96-.463-.052-.894-.268-1.213-.608-.32.34-.75.555-1.213.608-2.45.25-2.805-1.069-2.84-1.96-.036-.89.35-1.138.35-1.138l3.702.168 3.703-.168s.386.246.351 1.138z"/>
        <path fill="#13769D" fill-rule="nonzero" d="M112.819 227.646c0 .376 0 .471-.398.471-.612.068-1.23.036-1.832-.096-.34-.073-.685-.11-1.032-.11s-.694.037-1.033.11c-.601.132-1.22.164-1.832.096-.398 0-.398-.111-.398-.471 0-.95 1.068-1.136 1.799-1.136.314-.016.625.067.889.238.151.112.334.174.523.177h.09c.195-.004.383-.07.537-.188.268-.16.577-.24.889-.227.729 0 1.798.185 1.798 1.136z"/>
        <path fill="#022835" fill-rule="nonzero" d="M113.47 232.07h-7.826c-1.528 0-1.424-.67-1.424-.67.722-.003 2.888-.46 3.537-1.674.174-.499.53-.913.997-1.16.496-.215 1.057-.223 1.558-.021.48.254.85.674 1.045 1.18.648 1.214 2.814 1.672 3.536 1.675 0 0 .105.67-1.423.67z"/>
        <path fill="#FFF" fill-rule="nonzero" d="M111.584 222.812h-3.99c-.052-.005-.092-.048-.092-.1 0-.052.04-.095.091-.1h3.991c.052.005.092.048.092.1 0 .052-.04.095-.092.1zM111.584 223.73h-3.99c-.052-.004-.092-.047-.092-.099 0-.052.04-.095.091-.1h3.991c.038-.003.074.015.094.047.02.033.02.073 0 .106-.02.032-.056.05-.094.047zM111.584 224.76h-3.99c-.052-.005-.092-.048-.092-.1 0-.051.04-.095.091-.1h3.991c.038-.003.074.016.094.048.02.032.02.073 0 .105s-.056.05-.094.047zM111.584 225.688h-3.99c-.052-.005-.092-.048-.092-.1 0-.052.04-.095.091-.1h3.991c.052.005.091.048.091.1 0 .052-.04.095-.09.1z"/>
        <path fill="#13769D" fill-rule="nonzero" d="M109.171 226.014l-.07-.835c-.002-.029.007-.056.026-.077.02-.02.046-.032.074-.032h.71c.029 0 .056.011.075.032.019.021.028.05.025.077l-.08.836c-.005.051-.048.09-.1.09h-.56c-.052 0-.095-.04-.1-.091zM109.171 220.656l-.07-.835c-.002-.028.007-.055.026-.076.02-.02.046-.033.074-.033h.71c.029 0 .056.012.075.033.019.021.028.05.025.077l-.08.835c-.005.052-.048.091-.1.091h-.56c-.052 0-.095-.04-.1-.092z"/>
        <path fill="#007575" fill-rule="nonzero" d="M112.232 86.093L125.034 86.093 126.59 91.427 110.7 91.028z"/>
        <path fill="#E28C71" fill-rule="nonzero" d="M121.04 86.777c-.581-1.548-.815-3.205-.684-4.854h-4.012c.03 1.433-.166 2.861-.581 4.232-1.152 3.525-3.618 3.723-3.618 3.723l6.314 13.115 6.79-13.248c-1.882-.021-3.556-1.202-4.209-2.968z"/>
        <path fill="#B56F5D" fill-rule="nonzero" d="M121.04 86.777c-.581-1.548-.815-3.205-.684-4.854h-4.012c.03 1.433-.166 2.861-.581 4.232 1.565 1.023 3.518 1.253 5.277.622z"/>
        <path fill="#00B67A" fill-rule="nonzero" d="M113.537 91.006l2.29.695 2.6 4.61c.098.17.283.271.48.263.195-.01.37-.126.454-.303l2.078-4.632 2.962-.506 3.475-2.224 1.376.992c.582.418.928 1.09.932 1.805.042 7.176.29 46.119.822 54.954-5.169 5.868-22.788 3.983-26.478 0 .32-11.517-.831-54.582-.831-54.582l6.164-3.17 3.676 2.098z"/>
        <path fill="#EB996E" fill-rule="nonzero" d="M125.547 75.462s1.446 1.135 2.155-1.293c1.026-1.739 1.249-3.051-.448-3.051l-1.707 4.344zM112.145 75.462s-1.599 1.135-2.308-1.293c-1.026-1.739-1.249-3.051.449-3.051l1.86 4.344z"/>
        <path fill="#754C24" fill-rule="nonzero" d="M111.947 75.161L109.493 69.21 109.608 66.016 114.744 62.989 118.823 62.989 123.962 62.989 128.131 66.941 128.142 69.468 125.677 75.161z"/>
        <path fill="#EB996E" fill-rule="nonzero" d="M118.786 85.053c.062 0 .123-.001.185-.003 5.41-.168 7.135-9.504 7.135-9.504v-7.659s-1.766-2.578-7.283-2.578c-5.516 0-7.283 2.578-7.283 2.578v7.608s1.753 9.507 7.246 9.558z"/>
        <path fill="#FFF" fill-rule="nonzero" d="M122.146 78.414s.41 4.257-3.265 4.257c-3.619 0-3.391-4.257-3.391-4.257h6.656z"/>
        <circle cx="115.523" cy="72.582" r="1" fill="#253239" fill-rule="nonzero"/>
        <circle cx="122.137" cy="72.582" r="1" fill="#253239" fill-rule="nonzero"/>
        <path fill="#754C24" fill-rule="nonzero" d="M111.321 68.13s-.546.527.221 1.506c.747.667 1.853-.134 1.585-.636.39.434 1.013.573 1.55.346.49-.168.768-.686.636-1.187.078.265.26.488.506.615.246.128.534.149.796.06.546-.197.862-.767.741-1.335.073.668.659 1.16 1.33 1.117.302.04.608-.049.843-.243.235-.195.379-.478.397-.783-.022.63.414 1.184 1.031 1.31.556.146 1.136-.132 1.37-.656-.07.45.165.893.578 1.085 1.143.418 1.455-.215 1.455-.215s-.098.672.773.982c.417.16.885-.046 1.051-.46v-2.38l-5.6-3.493h-3.82l-5.222 2.917-.22 1.45zM111.201 69.79l-.915 1.328s-.858 0-.418-.843c0 0-.751-.194-.375-1.065.376-.87 1.005-.66 1.005-.66l.703 1.24zM127.159 70.2l.267.923c.194.033.39-.056.491-.226.076-.159.052-.348-.061-.483.237-.039.44-.192.543-.409.071-.292-.028-.6-.257-.794-.568-.345-.983.989-.983.989z"/>
        <path fill="#534741" fill-rule="nonzero" d="M104.527 146.66c2.611 1.38 6.528 2.174 13.22 2.133 8.122.164 10.031-.546 13.258-2.133 0 .74-.07 1.655-.07 1.655s-2.103 2.28-13.064 2.28c-9.625 0-13.273-2.254-13.273-2.254-.059-.559-.082-1.12-.07-1.681z"/>
        <path fill="#009A71" fill-rule="nonzero" d="M113.902 56.165c-.923.263-1.821.609-2.683 1.032-.572.389-1.018.937-1.283 1.575l-.685 2.531c-.067.248-.092.505-.075.762.132 1.96 2.579 3.097 4.488 2.085l.444-.235c-1.008-2.473-1.081-5.227-.206-7.75z"/>
        <path fill="#00B66D" fill-rule="nonzero" d="M120.052 62.383l3.332 1.767c1.91 1.012 4.356-.124 4.488-2.085.017-.256-.008-.514-.076-.762l-.691-2.556c-.187-.654-.62-1.21-1.207-1.55-.296-.176-.601-.337-.913-.482-1.568-.62-3.21-1.031-4.884-1.226-1.046-.146-2.108-.146-3.154 0-1.03.153-2.048.379-3.045.676-.875 2.523-.802 5.277.206 7.75l2.888-1.531c.958-.499 2.098-.499 3.056 0z"/>
        <path fill="#4D4D4D" fill-rule="nonzero" d="M111.662 61.16s-3.401.568-4.163 2.942c-.763 2.374 1.994 5.108 1.994 5.108 1.858-1.162 3.927-1.949 6.088-2.314-1.18-1.831-1.938-3.902-2.22-6.062-1.056.174-1.699.327-1.699.327z"/>
        <path fill="#333" fill-rule="nonzero" d="M127.673 61.728c-2.74-.839-5.58-1.307-8.445-1.393-1.966.01-3.928.177-5.867.499.282 2.16 1.04 4.23 2.22 6.062 4.348-.77 8.826.108 12.561 2.462l.168.11s.243 0 1.591-2.89c1.408-3.611-2.228-4.85-2.228-4.85z"/>
        <path fill="#EB996E" fill-rule="nonzero" d="M70.773 96.022l-1.432-1.429c-.676-.674-1.592-1.053-2.548-1.053h-7.068c-.192 0-.367.11-.452.281-.084.172-.064.377.053.529.553.716 1.345 1.21 2.231 1.392l5.981 1.226 1.11 1.154 2.125-2.1z"/>
        <path fill="#EB996E" fill-rule="nonzero" d="M104.26 115.89c.094 4.093 4.6-26.82 4.6-26.82-1.625.31-3.194.868-4.65 1.657-2.448 1.972-4.628 4.256-6.484 6.793l-9.3 12.603c-.147.2-.375.327-.623.347-.248.02-.492-.07-.67-.244l-16.36-14.204-2.125 2.1s12.536 16.869 18.96 20.882c.42.262 2.808 1.522 4.436-.012l10.563-11.429s1.51 2.06 1.654 8.327z"/>
        <path fill="#00B67A" fill-rule="nonzero" d="M97.83 97.334l-6.266 8.537c1.711 2.605 3.813 4.931 6.232 6.897l4.81-5.204s1.512 2.06 1.654 8.326c.094 4.093 4.6-26.82 4.6-26.82-1.5.33-2.957.834-4.34 1.504-2.641 1.556-4.726 4.407-6.69 6.76z"/>
        <path fill="#00937E" fill-rule="nonzero" d="M122.635 107.564h-.864c-.106 0-.207.042-.282.116-.074.075-.116.176-.116.282v5.971c0 .143.077.276.201.346l2.748 1.56c.122.068.271.068.393 0l1.493-.848c-2.232-1.825-3.54-4.545-3.573-7.427z"/>
        <path fill="#009A71" fill-rule="nonzero" d="M127.266 107.564h-4.631c.033 2.882 1.341 5.602 3.573 7.427l1.255-.712c.124-.07.201-.203.201-.346v-5.971c0-.22-.178-.398-.398-.398z"/>
        <path fill="#EB996E" fill-rule="nonzero" d="M163.928 96.022l1.433-1.429c.676-.674 1.592-1.053 2.547-1.053h7.069c.192 0 .367.109.451.28.085.173.064.378-.053.53-.553.716-1.345 1.21-2.231 1.392l-5.98 1.226-1.11 1.154-2.126-2.1z"/>
        <path fill="#EB996E" fill-rule="nonzero" d="M130.44 115.89c-.093 4.093-4.6-26.82-4.6-26.82s.854-.422 3.755 1.023c2.74 2.18 5.217 4.673 7.38 7.427l9.3 12.603c.147.2.375.327.623.347.248.02.492-.07.67-.244l16.36-14.204 2.125 2.1s-12.905 16.869-17.594 20.162c-.405.284-3.838 2.646-6.119.365l-10.246-11.086s-1.51 2.06-1.653 8.327z"/>
        <path fill="#00B67A" fill-rule="nonzero" d="M136.87 97.334l6.267 8.537c-1.71 2.605-3.813 4.931-6.232 6.897l-4.81-5.204s-1.511 2.06-1.654 8.326c-.093 4.093-4.6-26.82-4.6-26.82s.917-.634 2.717.33c2.641 1.556 6.35 5.58 8.313 7.934z"/>
        <path fill="#009A71" fill-rule="nonzero" d="M121.44 91.64l2.635 5.082s5.742-5.52 4.33-7.651c-.84-1.273-2.004-2.3-3.371-2.978 0 0 1.112 1.969-3.595 5.546zM115.826 91.701l-2.635 5.084s-5.743-5.583-4.33-7.714c.84-1.273 2.004-2.3 3.37-2.978 0 0-1.111 2.031 3.595 5.608z"/>
        <path fill="#F2F2F2" fill-rule="nonzero" d="M68.203 73.862l-8.883-.03c-.247 0-.447.199-.448.445l-.016 4.6-.002.606-.022 6.463-.01 2.654-.015 4.43c0 .264.213.48.477.48l8.82.03c.127 0 .249-.05.339-.139.09-.09.14-.21.141-.338l.014-4.156.004-.942.033-9.704v-.131l.013-3.82c0-.246-.198-.447-.445-.448z"/>
        <path fill="#FFC24B" fill-rule="nonzero" d="M68.322 88.903c-1.722.057-2.94 1.488-4.63 1.801-1.18.192-2.388-.075-3.378-.745-.57-.365-1.075-.825-1.491-1.36l-.015 4.43c-.001.265.212.48.477.48l8.82.03c.126 0 .248-.05.338-.139.09-.089.141-.21.142-.337l.014-4.157c-.093-.005-.184-.006-.277-.003z"/>
        <path fill="#FF4E2F" fill-rule="nonzero" d="M64.878 88.954c-.725.248-1.523.151-2.168-.262-.754-.647-1.455-1.354-2.098-2.112-.49-.433-1.127-.66-1.78-.635l-.01 2.655c.417.534.921.994 1.492 1.36.99.67 2.198.936 3.378.745 1.69-.313 2.908-1.744 4.63-1.802.092-.003.184-.001.276.004l.003-.942c-1.233.31-2.47.648-3.723.99zM68.203 73.862l-8.883-.03c-.247 0-.447.199-.448.445l-.016 4.6c.395.312.922.403 1.4.24.676-.303 1.302-.71 1.853-1.206.65-.762 1.504-1.323 2.461-1.618 1.57-.073 3.081.61 4.065 1.837l.013-3.82c0-.246-.198-.447-.445-.448z"/>
        <path fill="#FFC24B" fill-rule="nonzero" d="M64.57 76.293c-.957.295-1.81.856-2.461 1.618-.552.496-1.177.903-1.854 1.206-.477.163-1.004.072-1.4-.241l-.001.606c.445.158.902.281 1.367.368.87.21 1.79.063 2.552-.406.96-.73 1.633-1.812 2.814-2.127 1.07-.28 2.104.432 3.047.944v-.131c-.983-1.227-2.494-1.91-4.064-1.837z"/>
        <path fill="#006B7A" fill-rule="nonzero" d="M60.11 72.014l1.915.006c.264.001.478.216.477.48l-.005 1.343-2.871-.01.005-1.342c0-.127.05-.249.14-.338.09-.09.213-.14.34-.14z"/>
        <path fill="#00607A" fill-rule="nonzero" d="M61.239 73.839L60.939 73.837 60.945 72.017 61.246 72.019zM60.516 73.835L60.215 73.835 60.221 72.015 60.522 72.015zM61.963 73.842L61.662 73.84 61.668 72.019 61.969 72.021z"/>
        <path fill="#EDEDED" fill-rule="nonzero" d="M65.587 77.317c-1.18.315-1.854 1.397-2.814 2.127-.763.469-1.681.615-2.552.406-.465-.087-.922-.21-1.367-.368l-.022 6.463c.653-.025 1.29.202 1.78.635.643.759 1.344 1.465 2.098 2.112.645.413 1.443.51 2.168.263 1.254-.342 2.49-.68 3.723-.99l.034-9.704c-.944-.512-1.979-1.223-3.048-.944z"/>
        <path fill="#FFC24B" fill-rule="nonzero" d="M68.322 88.903c-1.722.057-2.94 1.488-4.63 1.801-1.18.192-2.388-.075-3.378-.745-.57-.365-1.075-.825-1.491-1.36l-.015 4.43c-.001.265.212.48.477.48l8.82.03c.126 0 .248-.05.338-.139.09-.089.141-.21.142-.337l.014-4.157c-.093-.005-.184-.006-.277-.003z"/>
        <path fill="#FF4E2F" fill-rule="nonzero" d="M64.878 88.954c-.725.248-1.523.151-2.168-.262-.754-.647-1.455-1.354-2.098-2.112-.49-.433-1.127-.66-1.78-.635l-.01 2.655c.417.534.921.994 1.492 1.36.99.67 2.198.936 3.378.745 1.69-.313 2.908-1.744 4.63-1.802.092-.003.184-.001.276.004l.003-.942c-1.233.31-2.47.648-3.723.99zM68.203 73.862l-8.883-.03c-.247 0-.447.199-.448.445l-.016 4.6c.395.312.922.403 1.4.24.676-.303 1.302-.71 1.853-1.206.65-.762 1.504-1.323 2.461-1.618 1.57-.073 3.081.61 4.065 1.837l.013-3.82c0-.246-.198-.447-.445-.448z"/>
        <path fill="#FFC24B" fill-rule="nonzero" d="M64.57 76.293c-.957.295-1.81.856-2.461 1.618-.552.496-1.177.903-1.854 1.206-.477.163-1.004.072-1.4-.241l-.001.606c.445.158.902.281 1.367.368.87.21 1.79.063 2.552-.406.96-.73 1.633-1.812 2.814-2.127 1.07-.28 2.104.432 3.047.944v-.131c-.983-1.227-2.494-1.91-4.064-1.837z"/>
        <path fill="#F4F2EF" fill-rule="nonzero" d="M175.588 93.54h-8.938c-.282 0-.55-.117-.743-.323-.192-.206-.29-.482-.27-.763l1.174-16.866c.017-.3.217-.559.503-.65l1.71-.549h4.19l1.71.549c.286.091.486.35.503.65l1.174 16.866c.02.28-.078.557-.27.763-.193.206-.462.323-.743.323z"/>
        <path fill="#E5E5E5" fill-rule="nonzero" d="M169.612 93.398L169.62 93.398 169.612 93.398zM175.588 93.54h-5.976s1.354-3.26 1.45-3.556c.093-.29.18-.581.263-.877.13-.47.244-.948.344-1.435.034-.168.067-.338.097-.508.014-.076.028-.152.04-.228l.034-.2c.046-.27.09-.54.133-.81.17-1.068.314-2.127.404-3.175.014-.154.026-.307.037-.46.034-.48.055-.957.064-1.432l.002-.162c.012-.94-.045-1.878-.17-2.808-.034-.251-.075-.501-.121-.75-.135-.732-.324-1.451-.567-2.154-.072-.211-.174-.412-.301-.596h1.893l1.71.549c.286.092.486.35.503.65l1.174 16.866c.02.281-.079.557-.27.763-.193.206-.462.323-.743.323z"/>
        <path fill="#C7BB99" fill-rule="nonzero" d="M170.19 84.798s-.228-.572.814-1.087c.658-.305 1.176-.849 1.449-1.521.062.158.049.336-.037.484-.225.425-.556.785-.96 1.045-.256.172-.965.367-1.266 1.08z"/>
        <path fill="#C7BB99" fill-rule="nonzero" d="M170.189 85.086s.039-.469 1.034-1.07c.995-.602 1.078-1.013 1.078-1.013.026.168-.026.34-.141.464-.285.342-.642.617-1.046.805-.393.156-.72.444-.925.814z"/>
        <path fill="#2536D8" fill-rule="nonzero" d="M172.946 72.042c-.01-.092-.088-.16-.18-.16h-3.294c-.092 0-.17.068-.18.16l-.268 2.347h4.19l-.268-2.347z"/>
        <path fill="#3D53FB" fill-rule="nonzero" d="M167.192 70.18l.673-.288c.029-.012.06-.017.092-.013l1.565.183.261-.517-1.768-.26c-.032-.004-.064 0-.094.011l-.945.376c-.046.019-.082.055-.1.1-.02.047-.019.098.002.143l.077.173c.04.09.146.132.237.093z"/>
        <path fill="#2521A5" fill-rule="nonzero" d="M168.438 69.348c-.036.079-.105.138-.19.16-.484.044-.933.27-1.257.632.052.054.132.07.2.04l.673-.287c.03-.013.061-.017.093-.014l1.565.183.26-.517-1.344-.197z"/>
        <path fill="#3D53FB" fill-rule="nonzero" d="M171.128 69.154H171.11c-1.498.007-1.64.877-1.64.877v1.85h3.298v-1.85s-.142-.87-1.64-.877z"/>
        <path fill="#292F47" fill-rule="nonzero" d="M168.867 89.107H173.37V90.107H168.867z"/>
        <path fill="#FCD58C" fill-rule="nonzero" d="M168.867 89.984H173.37V90.984H168.867z"/>
        <rect width="2.54" height="1.216" x="169.849" y="76.98" fill="#E03724" fill-rule="nonzero" rx=".608"/>
        <path fill="#6C4E22" fill-rule="nonzero" d="M169.138 80.696H170.3V81.696H169.138zM171.938 80.696H173.1V81.696H171.938z"/>
        <path fill="#C7BB99" fill-rule="nonzero" d="M170.544 85.537c-.015.22.014.44.083.649.383.625.81 1.22 1.28 1.784.145.183.274.38.384.586 0 0 .37-.187-.11-.855 0 0-1.2-1.543-1.637-2.164z"/>
        <path fill="#3555B4" fill-rule="nonzero" d="M170.627 83.823c.118-.322.336-.598.622-.787v2.017c-.34-.312-.559-.735-.615-1.194l-.006-.036z"/>
        <path fill="#424270" fill-rule="nonzero" d="M170.627 83.823c-.1.48-.1.974 0 1.453.383.625.81 1.22 1.28 1.784 0 0 .662.679.662 1.137.106-.771-.086-1.553-.536-2.187-.574-.656-1.047-1.393-1.405-2.187z"/>
        <path fill="#6C4E22" fill-rule="nonzero" d="M170.565 80.756c-.005 0-.009-.004-.01-.01 0-.005.003-.01.008-.01.19-.053.367-.143.521-.265.122-.136.154.148.16.245 0 .004.003.008.008.01.004 0 .009 0 .011-.004.073-.101.192-.159.316-.154l.005.002c.334.174.047.177.02.177h-.003c-.09.041-.164.114-.204.206-.094.144-.273.208-.438.157-.165-.05-.32-.125-.462-.222-.004-.003-.006-.008-.004-.013.001-.005.006-.008.011-.007.127.02.258.003.376-.05.005-.003.007-.01.004-.014-.018-.04-.239-.037-.319-.048z"/>
        <path fill="#2521AF" fill-rule="nonzero" d="M172.946 72.042c-.01-.092-.088-.16-.18-.16H170.4c.27.454.338 1 .19 1.506-.084.365-.247.706-.478 1h3.101l-.268-2.346z"/>
        <path fill="#3842E0" fill-rule="nonzero" d="M171.173 69.156c.464.86.424 1.903-.103 2.725h1.698v-1.85s-.14-.851-1.595-.876z"/>
        <path d="M0 0.548H240V240.548H0z"/>
    </g>
</svg>
